<?xml version="1.0" encoding="UTF-8" standalone="no"?>
<!-- Created with Inkscape (http://www.inkscape.org/) -->

<svg
   width="297mm"
   height="124mm"
   viewBox="0 0 297 124"
   version="1.1"
   id="svg1"
   xml:space="preserve"
   xmlns="http://www.w3.org/2000/svg"
   xmlns:svg="http://www.w3.org/2000/svg"><defs
     id="defs1" /><g
     id="layer1"><g
       id="g4"
       transform="matrix(6.7121515,0,0,6.7121515,-293.71314,-1099.197)"><g
         id="g3"><path
           style="fill:#030049;fill-opacity:1"
           d="m 45.89579,181.73175 c -0.247159,-0.0718 -0.338182,-0.31447 -0.314398,-0.8382 0.01535,-0.33808 0.03835,-0.4262 0.137016,-0.52491 l 0.118567,-0.11863 2.199651,-0.0261 2.199652,-0.0261 0.094,-0.13057 c 0.0517,-0.0718 0.101218,-0.17486 0.110035,-0.229 0.01254,-0.077 -0.04352,-0.1189 -0.257555,-0.19247 -0.635698,-0.21849 -1.391569,-0.73029 -1.835713,-1.24298 -0.145267,-0.16768 -0.355503,-0.45521 -0.467192,-0.63896 l -0.20307,-0.33409 -1.482744,-0.0261 c -0.81551,-0.0144 -1.520691,-0.045 -1.56707,-0.0682 -0.136171,-0.0679 -0.202928,-0.27901 -0.202928,-0.64175 0,-0.29071 0.01839,-0.35778 0.128195,-0.46759 l 0.128196,-0.1282 h 3.113941 3.113941 l 0.152666,0.15267 c 0.139607,0.13961 0.152666,0.18389 0.152666,0.51764 0,0.34342 -0.0095,0.37294 -0.160691,0.50018 -0.158599,0.13345 -0.171851,0.13521 -1.01844,0.13521 -0.809041,0 -0.857751,0.006 -0.857751,0.0996 0,0.12866 0.470573,0.55139 0.799126,0.71788 0.140494,0.0712 0.433219,0.17491 0.650499,0.23048 1.084994,0.2775 2.25005,-0.0364 3.107718,-0.83741 0.214569,-0.20038 0.489473,-0.51682 0.610899,-0.70319 0.270865,-0.41574 0.50809,-1.01394 0.606907,-1.53041 0.09798,-0.51211 0.09437,-1.27878 -0.0084,-1.77873 -0.08952,-0.43559 -0.329513,-1.05622 -0.488016,-1.26203 l -0.09879,-0.12828 -0.378018,0.3566 c -0.238796,0.22527 -0.503665,0.4154 -0.719174,0.51625 -0.286939,0.13427 -0.403987,0.15954 -0.73653,0.15899 -0.502263,-8.3e-4 -0.885663,-0.1439 -1.320199,-0.49264 -0.175806,-0.14109 -0.345173,-0.25632 -0.376372,-0.25606 -0.0312,2.6e-4 -0.225597,0.27641 -0.431996,0.61367 -0.206399,0.33727 -0.409059,0.65872 -0.450356,0.71435 -0.07178,0.0967 -0.124733,0.0694 -1.204617,-0.61978 -0.621244,-0.3965 -1.129374,-0.74755 -1.12918,-0.7801 1.94e-4,-0.0326 0.553846,-0.97577 1.230336,-2.09606 0.67649,-1.12028 1.586757,-2.62995 2.022815,-3.3548 0.436059,-0.72486 0.820393,-1.3285 0.854077,-1.34142 0.0539,-0.0207 0.370457,0.16631 1.677172,0.99069 0.179826,0.11345 0.339754,0.24646 0.355394,0.29558 0.01773,0.0557 -0.171796,0.42568 -0.503505,0.98291 -0.302872,0.50879 -0.512142,0.91289 -0.485963,0.9384 0.02529,0.0246 0.207227,0.10518 0.404308,0.17899 0.197081,0.0738 0.526116,0.24476 0.731188,0.37988 0.457376,0.30135 1.15912,1.00556 1.560507,1.56599 0.365768,0.5107 0.720216,1.1946 0.897124,1.73099 0.169451,0.51378 0.291648,1.22685 0.29138,1.70034 -4.34e-4,0.76923 -0.262665,1.87238 -0.606555,2.55164 -0.389102,0.76857 -1.161697,1.66077 -1.820927,2.10284 -0.171345,0.1149 -0.523672,0.31585 -0.782949,0.44656 -0.447379,0.22553 -0.470548,0.2455 -0.454442,0.39171 0.0093,0.0847 0.05411,0.19519 0.09949,0.24546 0.0737,0.0816 0.201943,0.0914 1.199001,0.0914 1.186499,0 1.411133,0.0373 1.526742,0.25328 0.03104,0.058 0.05643,0.30545 0.05643,0.5499 0,0.39452 -0.01416,0.46092 -0.126037,0.59099 l -0.126037,0.14654 -4.770312,0.009 c -2.936571,0.005 -4.83698,-0.0106 -4.943741,-0.0416 z m 7.024918,-9.6587 c 0.19728,-0.0745 0.421949,-0.29359 0.543517,-0.52993 0.05482,-0.10658 0.09967,-0.28948 0.09967,-0.40645 0,-0.23285 -0.110171,-0.54031 -0.250073,-0.69791 -0.117034,-0.13183 -0.576077,-0.34596 -0.742254,-0.34624 -0.240098,-4.1e-4 -0.523404,0.10783 -0.709169,0.27094 -0.101221,0.0889 -0.218091,0.22744 -0.259711,0.30792 -0.04162,0.0805 -0.07567,0.28392 -0.07567,0.45207 0,0.24694 0.02884,0.35121 0.149963,0.5422 0.09745,0.15367 0.23004,0.27611 0.378651,0.34967 0.2495,0.1235 0.62473,0.14854 0.865078,0.0577 z m -4.663408,3.14641 c -0.57242,-0.34768 -1.363618,-0.88311 -1.405799,-0.95136 -0.01922,-0.0311 0.08377,-0.26081 0.228865,-0.51046 0.180973,-0.31139 0.293237,-0.45282 0.35752,-0.45043 0.123286,0.005 1.843172,1.11043 1.881214,1.20957 0.03158,0.0823 -0.177432,0.50748 -0.3857,0.78465 -0.07015,0.0934 -0.157719,0.16974 -0.194603,0.16974 -0.03688,0 -0.253557,-0.11327 -0.481497,-0.25171 z m 4.981101,-9.62355 -0.821387,-0.5265 0.07437,-0.17799 c 0.08627,-0.20647 0.516317,-0.88322 0.590312,-0.92895 0.02763,-0.0171 0.376572,0.17069 0.775437,0.41725 0.398864,0.24656 0.766337,0.48465 0.816606,0.52908 0.05027,0.0444 0.0914,0.10941 0.0914,0.14439 0,0.10321 -0.585499,1.06922 -0.648056,1.06922 -0.03151,0 -0.426915,-0.23693 -0.878678,-0.5265 z"
           id="path2" /><path
           style="fill:#030049;fill-opacity:1;stroke-width:0.449802"
           d="m 57.138752,177.30534 v -3.96091 l 0.675435,0.01 0.675435,0.01 0.01851,0.18217 c 0.01018,0.1002 0.03776,0.1885 0.06129,0.19623 0.02353,0.008 0.09866,-0.0349 0.166953,-0.095 0.140107,-0.12301 0.484793,-0.30611 0.734022,-0.3899 0.0916,-0.0308 0.31118,-0.0767 0.487955,-0.1021 0.259003,-0.0371 0.381166,-0.0369 0.629172,0.002 0.169271,0.0261 0.428671,0.0882 0.576445,0.13777 0.30222,0.10141 0.554498,0.24109 0.857563,0.47479 0.347446,0.26793 0.702324,0.73546 0.861311,1.13472 0.145277,0.36483 0.171856,0.46834 0.218758,0.85187 0.03355,0.27428 0.03346,0.43646 -3.41e-4,0.70318 -0.04549,0.35892 -0.07504,0.47707 -0.197748,0.79082 -0.165184,0.42231 -0.58669,0.97132 -0.97194,1.26592 -0.195437,0.14946 -0.480416,0.31483 -0.676323,0.39247 -0.35929,0.14239 -0.708886,0.21062 -1.079172,0.21062 -0.506316,0 -0.948284,-0.12396 -1.389712,-0.38977 -0.154923,-0.0933 -0.224766,-0.11798 -0.244301,-0.0864 -0.01504,0.0243 -0.02899,0.6096 -0.03098,1.30057 -0.002,0.69096 -0.01279,1.27112 -0.02397,1.28923 -0.0112,0.0181 -0.319153,0.033 -0.684351,0.033 h -0.663998 z m 3.472579,0.49708 c 0.26866,-0.0892 0.385921,-0.16219 0.610477,-0.37987 0.233025,-0.22589 0.387309,-0.50915 0.466556,-0.85658 0.05063,-0.22195 0.03736,-0.7095 -0.02547,-0.93633 -0.072,-0.25994 -0.23906,-0.53758 -0.45508,-0.75629 -0.117994,-0.11947 -0.311529,-0.26588 -0.430079,-0.32537 -0.203937,-0.10233 -0.240469,-0.10814 -0.678175,-0.10789 -0.397945,2.1e-4 -0.487443,0.0117 -0.640125,0.0817 -0.188049,0.0863 -0.405746,0.23648 -0.521586,0.35981 -0.141503,0.15063 -0.35825,0.51827 -0.41172,0.69832 -0.07476,0.25174 -0.07278,0.88051 0.0035,1.11823 0.100057,0.31175 0.211827,0.50455 0.41093,0.70883 0.210853,0.21636 0.560324,0.4027 0.852347,0.45451 0.220361,0.0391 0.606769,0.0113 0.818396,-0.0591 z m 5.076763,1.26292 c -0.320449,-0.0704 -0.482479,-0.13244 -0.683219,-0.26162 -0.294131,-0.18929 -0.449181,-0.39124 -0.601549,-0.78353 l -0.09765,-0.25138 -0.02123,-1.60995 -0.02123,-1.60994 -0.553607,-0.0103 c -0.386021,-0.008 -0.562306,-0.024 -0.582342,-0.0556 -0.01581,-0.0248 -0.02899,-0.28051 -0.0293,-0.56809 -4.37e-4,-0.40343 0.01126,-0.53267 0.05123,-0.56583 0.03449,-0.0286 0.22151,-0.0413 0.559967,-0.0379 0.390368,0.005 0.51551,-0.007 0.539805,-0.0448 0.01739,-0.0275 0.03189,-0.35327 0.03219,-0.72405 5.4e-4,-0.6283 0.0054,-0.67673 0.07216,-0.71244 0.09085,-0.0486 1.076034,-0.0504 1.202853,-0.002 l 0.09493,0.0361 v 0.68296 c 0,0.57153 0.0095,0.69245 0.05815,0.74113 0.04801,0.048 0.161185,0.0581 0.648618,0.0581 h 0.59046 l -0.01021,0.58291 -0.01021,0.58291 -0.609074,0.0102 c -0.430453,0.008 -0.617515,0.0235 -0.637858,0.0555 -0.01584,0.0249 -0.02904,0.61526 -0.02936,1.31186 -5.4e-4,1.25091 4.94e-4,1.26894 0.08661,1.4619 0.152252,0.34117 0.291566,0.41173 0.819565,0.41507 l 0.370102,0.002 v 0.62889 0.62888 l -0.240563,0.0448 c -0.298327,0.0556 -0.730564,0.053 -0.999275,-0.006 z m 6.550795,0.0185 c -0.05089,-0.0165 -0.20955,-0.0652 -0.352578,-0.1081 -0.344581,-0.10342 -0.656816,-0.26877 -0.905449,-0.47949 -0.11178,-0.0947 -0.23383,-0.19724 -0.271217,-0.22778 -0.105789,-0.0864 -0.442912,-0.58699 -0.557692,-0.82814 -0.05693,-0.1196 -0.143411,-0.37776 -0.192174,-0.57365 -0.213683,-0.85844 -0.03118,-1.86293 0.464795,-2.55829 0.175841,-0.24652 0.499136,-0.55936 0.721388,-0.69805 0.374398,-0.23363 0.661647,-0.34402 1.160518,-0.44598 0.428784,-0.0876 0.936561,-0.0292 1.523846,0.17534 0.56398,0.19645 1.069676,0.66374 1.353898,1.25108 0.08994,0.18585 0.163517,0.37118 0.163517,0.41184 0,0.0406 -0.02083,0.0905 -0.04627,0.11094 -0.02546,0.0204 -0.137864,0.0467 -0.249816,0.0583 -0.111956,0.0118 -0.336793,0.0392 -0.499641,0.061 -0.49959,0.0668 -0.46766,0.0719 -0.552568,-0.0886 -0.125594,-0.23728 -0.370138,-0.48041 -0.600477,-0.59701 -0.202947,-0.10272 -0.242656,-0.10944 -0.641946,-0.10839 -0.373318,7.2e-4 -0.448354,0.0121 -0.610665,0.0907 -0.258161,0.125 -0.615731,0.49075 -0.735262,0.75207 -0.130303,0.28488 -0.191809,0.81984 -0.135781,1.18097 0.02227,0.14342 0.09721,0.38357 0.166561,0.53369 0.188885,0.40882 0.461232,0.64921 0.941261,0.83082 0.15817,0.0599 0.665659,0.0586 0.826298,-0.002 0.41648,-0.15701 0.679741,-0.3827 0.858961,-0.73637 0.09012,-0.17783 0.105087,-0.18991 0.234423,-0.18923 0.076,4e-4 0.271403,0.0248 0.434249,0.0543 0.162843,0.0294 0.363679,0.0541 0.446299,0.0547 0.08263,7.2e-4 0.180636,0.0236 0.217808,0.0507 0.06514,0.0476 0.06521,0.0566 0.0018,0.24982 -0.128599,0.39146 -0.341527,0.74806 -0.616895,1.03313 -0.197487,0.20444 -0.355808,0.32327 -0.629135,0.4722 -0.193528,0.10544 -0.349883,0.16033 -0.756491,0.26558 -0.175814,0.0455 -1.024268,0.0481 -1.161526,0.004 z m 5.810592,-0.008 c -0.358772,-0.0993 -0.44069,-0.12638 -0.623314,-0.20579 -0.295894,-0.12864 -0.559996,-0.30899 -0.807392,-0.55134 -0.12196,-0.11948 -0.291651,-0.32093 -0.377092,-0.44769 -0.194463,-0.2885 -0.353288,-0.63394 -0.41304,-0.89834 -0.02532,-0.11196 -0.06059,-0.25184 -0.0784,-0.31086 -0.04313,-0.1429 -0.04147,-0.88552 0.0023,-1.05422 0.01911,-0.0736 0.06098,-0.2356 0.093,-0.35999 0.06447,-0.25049 0.251034,-0.65134 0.416104,-0.89404 0.156383,-0.22991 0.480659,-0.55283 0.714458,-0.71148 0.25071,-0.17012 0.526047,-0.3109 0.721699,-0.36901 0.249123,-0.074 0.693128,-0.148 0.888243,-0.14805 0.101777,-2e-5 0.318285,0.0237 0.481132,0.0528 0.453567,0.0809 0.74656,0.19655 1.091796,0.43107 0.374209,0.2542 0.693952,0.60812 0.863869,0.95621 0.143116,0.29316 0.119139,0.28507 0.13541,0.35353 0.02351,0.0737 0.04228,0.15647 -0.02775,0.18526 -0.03562,0.0147 -0.164696,0.0401 -0.286826,0.0565 -0.122135,0.0165 -0.346974,0.0497 -0.499636,0.0742 -0.45275,0.0724 -0.437892,0.0758 -0.552687,-0.12755 -0.139708,-0.24749 -0.342025,-0.44922 -0.562626,-0.56101 -0.217431,-0.11017 -0.553501,-0.15693 -0.870265,-0.12107 -0.384141,0.0435 -0.730993,0.26629 -0.968624,0.62215 -0.08398,0.12575 -0.170721,0.28987 -0.192757,0.36469 -0.02204,0.0748 -0.0616,0.26381 -0.08791,0.41998 -0.03886,0.23074 -0.03904,0.34166 -8.7e-4,0.59215 0.02587,0.16953 0.06769,0.36652 0.09294,0.43776 0.0584,0.16478 0.290465,0.50785 0.427875,0.63254 0.27004,0.24505 0.603109,0.36914 1.004815,0.37436 0.157858,0.002 0.351732,-0.0192 0.433434,-0.0476 0.0813,-0.0281 0.227906,-0.0994 0.325778,-0.15819 0.181699,-0.10915 0.403995,-0.37662 0.519667,-0.62529 0.0598,-0.12855 0.07604,-0.13869 0.220115,-0.13749 0.08556,7.2e-4 0.288795,0.0254 0.451638,0.0548 0.162846,0.0294 0.351305,0.0538 0.418798,0.0543 0.06749,4e-4 0.15493,0.018 0.194301,0.039 0.08279,0.0443 0.09009,0.14841 0.0233,0.33179 -0.126223,0.34647 -0.36815,0.71816 -0.634995,0.97555 -0.228293,0.22023 -0.414255,0.3504 -0.70458,0.49323 -0.208799,0.10272 -0.294085,0.13207 -0.670476,0.23076 -0.185233,0.0485 -0.982176,0.0461 -1.161525,-0.004 z m 5.921625,0.009 c -0.05089,-0.0161 -0.192452,-0.0584 -0.314587,-0.0941 -0.74473,-0.21757 -1.335136,-0.69789 -1.72009,-1.39934 -0.15978,-0.29113 -0.287537,-0.7061 -0.337618,-1.09662 -0.03491,-0.27208 -0.03477,-0.42484 4.5e-4,-0.70252 0.04215,-0.33191 0.06779,-0.44653 0.16214,-0.72495 0.08529,-0.2517 0.224443,-0.52354 0.378509,-0.73945 0.242934,-0.34045 0.58509,-0.64518 0.947807,-0.84413 0.20072,-0.11011 0.659442,-0.25927 0.978105,-0.31807 0.285498,-0.0527 0.668406,-0.0529 0.894738,-4.5e-4 0.666725,0.15413 0.83277,0.22137 1.231502,0.4987 0.55233,0.38417 0.89862,0.85504 1.141098,1.55161 0.131486,0.37772 0.170722,1.09626 0.08285,1.51742 -0.133133,0.63813 -0.399753,1.12718 -0.857535,1.57293 -0.39257,0.38225 -0.888527,0.64496 -1.440084,0.76282 -0.255861,0.0547 -0.992728,0.0652 -1.147326,0.0163 z m 1.135424,-1.30295 c 0.388427,-0.14533 0.653833,-0.39111 0.853136,-0.79006 0.11434,-0.22888 0.172207,-0.52516 0.169882,-0.86974 -0.0014,-0.22269 -0.026,-0.38487 -0.08388,-0.55515 -0.133714,-0.39341 -0.364584,-0.70574 -0.678024,-0.91722 -0.274223,-0.18503 -0.405602,-0.23305 -0.867144,-0.24924 -0.418376,-0.0147 -0.449609,0.0447 -0.658925,0.14807 -0.240859,0.11977 -0.600805,0.45531 -0.70135,0.65381 -0.17621,0.34787 -0.250859,0.77253 -0.201669,1.14729 0.01966,0.14964 0.04883,0.30539 0.06488,0.3461 0.113579,0.28826 0.305668,0.61467 0.439169,0.74628 0.177281,0.17477 0.571316,0.38346 0.801521,0.4245 0.234554,0.0418 0.627493,0.003 0.862415,-0.0847 z m -17.177849,1.1194 c -0.155393,-0.0186 -0.187554,-0.0362 -0.209486,-0.11448 -0.02986,-0.10663 -0.03599,-5.13857 -0.0064,-5.32102 l 0.01957,-0.1211 0.671115,0.01 0.671114,0.01 0.0096,2.73875 c 0.0089,2.54192 0.0051,2.74208 -0.05333,2.78502 -0.04301,0.0315 -0.198503,0.0444 -0.490739,0.0404 -0.235287,-0.003 -0.510404,-0.0157 -0.611377,-0.0277 z m 0.109559,-6.31483 c -0.29933,-0.14718 -0.495022,-0.50101 -0.446663,-0.80761 0.01332,-0.0844 0.05845,-0.22461 0.100305,-0.31153 0.113202,-0.23508 0.468232,-0.45263 0.738662,-0.45263 0.05703,0 0.190096,0.0186 0.295705,0.0411 0.147292,0.0315 0.229175,0.0783 0.351561,0.20073 0.115167,0.11516 0.176587,0.21817 0.220822,0.37033 0.0563,0.19371 0.05652,0.22748 0.0027,0.41681 -0.06968,0.24493 -0.261547,0.46306 -0.498175,0.56638 -0.22903,0.10002 -0.532453,0.0906 -0.764889,-0.0237 z"
           id="path3" /></g></g></g></svg>
